<svg id="Layer_1" data-name="Layer 1" xmlns="http://www.w3.org/2000/svg" xmlns:xlink="http://www.w3.org/1999/xlink" viewBox="0 0 472.25 117.81"><defs><style>.cls-1{fill:#012169;}.cls-2{fill:#fff;}.cls-3{fill:url(#linear-gradient);}.cls-4{fill:url(#linear-gradient-2);}.cls-5{fill:url(#radial-gradient);}.cls-6{fill:url(#linear-gradient-3);}.cls-7{fill:#595959;}</style><linearGradient id="linear-gradient" x1="542.6" y1="274.45" x2="604.89" y2="336.73" gradientUnits="userSpaceOnUse"><stop offset="0" stop-color="#ff9c00"/><stop offset="1" stop-color="#fa6500"/></linearGradient><linearGradient id="linear-gradient-2" x1="541.66" y1="275.39" x2="603.92" y2="337.65" gradientUnits="userSpaceOnUse"><stop offset="0" stop-color="#e67f00"/><stop offset="1" stop-color="#d04e00"/></linearGradient><radialGradient id="radial-gradient" cx="531.88" cy="266.59" r="114.13" gradientUnits="userSpaceOnUse"><stop offset="0" stop-color="#fff"/><stop offset="0.35" stop-color="#fbfbfb"/><stop offset="0.67" stop-color="#f0f0f0"/><stop offset="0.98" stop-color="#ddd"/><stop offset="1" stop-color="#dcdcdc"/></radialGradient><linearGradient id="linear-gradient-3" x1="532.09" y1="263.94" x2="615.4" y2="347.24" gradientUnits="userSpaceOnUse"><stop offset="0" stop-color="#dcdcdc"/><stop offset="0.2" stop-color="#d8d8d8"/><stop offset="0.39" stop-color="#cdcdcd"/><stop offset="0.57" stop-color="#bababa"/><stop offset="0.75" stop-color="#a0a0a0"/><stop offset="0.93" stop-color="#7e7e7e"/><stop offset="1" stop-color="#6e6e6e"/></linearGradient></defs><title>AT-Logo-Blue</title><path class="cls-1" d="M185.24,281.85l17.87,52.37h-9.48l-3.36-10.75H172.74l-3.45,10.75H160.4l17.79-52.37ZM181.54,296l-6.2,19.39h12.33l-6-19.39Z" transform="translate(-160.4 -246.68)"/><path class="cls-1" d="M215,293.35v25.26c0,3.36.33,5.12,1.34,6.38s2.93,1.93,5.45,1.93,4.37-.59,5.46-1.93,1.34-3,1.34-6.38V293.35h8.56v26.52c0,9.82-5.54,14.85-15.36,14.85s-15.36-5-15.36-14.85V293.35Z" transform="translate(-160.4 -246.68)"/><path class="cls-1" d="M257.19,283.7v9.65h8.65v6.71h-8.65V319.2c0,3.19.34,4.86,1.43,6.12.93,1.18,2.6,1.68,5.12,1.68a13.09,13.09,0,0,0,1.93-.08v7.63a21.08,21.08,0,0,1-3.27.17c-4.87,0-8.31-1.34-10.41-3.78-2.43-2.68-3.36-6-3.36-11.74V300.06h-6.29v-6.71h6.29V283.7Z" transform="translate(-160.4 -246.68)"/><path class="cls-1" d="M270.88,307.78c0-9.9,5.54-14.93,15.36-14.93s15.35,5,15.35,14.93v12.09c0,9.82-5.53,14.85-15.35,14.85s-15.36-5-15.36-14.85Zm8.56,10.83c0,3.36.34,5.12,1.34,6.38s2.94,1.93,5.46,1.93,4.36-.59,5.45-1.93,1.35-3,1.35-6.38V309c0-3.27-.34-5.12-1.35-6.38s-2.94-1.93-5.45-1.93-4.37.59-5.46,1.93-1.34,3.11-1.34,6.38Z" transform="translate(-160.4 -246.68)"/><path class="cls-1" d="M320.64,283.7v9.65h8.65v6.71h-8.65V319.2c0,3.19.34,4.86,1.43,6.12.92,1.18,2.6,1.68,5.12,1.68a13.09,13.09,0,0,0,1.93-.08v7.63a21.15,21.15,0,0,1-3.27.17c-4.87,0-8.31-1.34-10.41-3.78-2.43-2.68-3.36-6-3.36-11.74V300.06h-6.29v-6.71h6.29V283.7Z" transform="translate(-160.4 -246.68)"/><path class="cls-1" d="M344.64,293.35l.17,4.7a10.67,10.67,0,0,1,9.57-5.2,27.89,27.89,0,0,1,3,.16v8.14a18.28,18.28,0,0,0-2.18-.08c-3.43,0-6.12.76-7.8,2.43-1.51,1.6-2.18,3.7-2.18,7.22v23.5h-8.56V293.35Z" transform="translate(-160.4 -246.68)"/><path class="cls-1" d="M392.81,293.35v40.87h-7.47l-.17-4.2a11.46,11.46,0,0,1-9.73,4.7,13.66,13.66,0,0,1-9.74-3.52c-2.35-2.35-3.61-5.63-3.61-11.16V307.53c0-5.54,1.26-8.81,3.61-11.16a13.61,13.61,0,0,1,9.74-3.52c4.11,0,7.55,1.5,9.56,4.28l.26-3.78Zm-22.16,25c0,3.69.34,5.28,1.6,6.71a6.27,6.27,0,0,0,4.78,1.76,7.49,7.49,0,0,0,5-1.76c1.67-1.6,2.18-3.78,2.18-7.22v-8.22c0-3.36-.51-5.71-2.18-7.3a7,7,0,0,0-5-1.68c-2.26,0-3.69.5-4.78,1.68-1.26,1.34-1.6,3.1-1.6,6.8Z" transform="translate(-160.4 -246.68)"/><path class="cls-1" d="M431.75,278.16v56.06h-7.47l-.34-4c-1.76,2.77-5.12,4.45-9.4,4.45-3.86,0-7.55-1.18-9.9-3.52S401,325.57,401,320V307.53c0-5.54,1.26-8.81,3.61-11.16s6.12-3.52,10-3.52a12.21,12.21,0,0,1,8.56,3.18V278.16Zm-22.16,40.2c0,3.69.34,5.28,1.6,6.71a6.25,6.25,0,0,0,4.78,1.76,7.47,7.47,0,0,0,5-1.76c1.68-1.6,2.18-3.78,2.18-7.22v-8.22c0-3.36-.5-5.71-2.18-7.3a7,7,0,0,0-5-1.68c-2.27,0-3.69.5-4.78,1.68-1.26,1.34-1.6,3.1-1.6,6.8Z" transform="translate(-160.4 -246.68)"/><path class="cls-1" d="M440,307.78c0-9.9,5.29-14.93,15.11-14.93s15.11,5,15.11,14.93v6.89a2.05,2.05,0,0,1-2.35,2.26h-19.3v1.93c0,4.87.67,8.22,6.54,8.22,4.53,0,6.47-2.18,6.47-6.2H470V321c0,9-5.62,13.68-14.94,13.68-9.82,0-15.11-5-15.11-14.85Zm8.57,2.35h13.09v-1.34c0-5-.75-8.31-6.55-8.31-5.37,0-6.54,2.86-6.54,8.31Z" transform="translate(-160.4 -246.68)"/><path class="cls-1" d="M486.37,293.35l.17,4.7a10.68,10.68,0,0,1,9.57-5.2,28.1,28.1,0,0,1,3,.16v8.14a18.36,18.36,0,0,0-2.18-.08c-3.44,0-6.13.76-7.81,2.43-1.51,1.6-2.18,3.7-2.18,7.22v23.5H478.4V293.35Z" transform="translate(-160.4 -246.68)"/><circle class="cls-2" cx="573.75" cy="305.59" r="58.12" transform="translate(-168.91 -230.14) rotate(-1.64)"/><path class="cls-3" d="M617.78,305.59a44,44,0,1,1-44-44A44,44,0,0,1,617.78,305.59Z" transform="translate(-160.4 -246.68)"/><path class="cls-4" d="M532.93,303.52h-3.17a44,44,0,0,1,28.44-39.14l-.59,3.26A44,44,0,0,0,532.93,303.52Zm42.5-34-1.45-8h-.47l-7.59,42h3.36Zm-27,49.07.31-1.68H531.18a44,44,0,0,0,13.58,21.8l.19-1.08a44,44,0,0,1-10.71-19Zm35.91,0-.31-1.68H563.5l-5.4,29.84c1,.39,2.1.74,3.17,1.06l5.29-29.22Zm5-54.22,13.44,74.34c.82-.71,1.59-1.46,2.35-2.23l-12.8-70.85C591.3,265.18,590.31,264.76,589.29,264.38Z" transform="translate(-160.4 -246.68)"/><path class="cls-5" d="M573.74,248.35A57.24,57.24,0,1,0,631,305.59,57.24,57.24,0,0,0,573.74,248.35Zm-.23,13.2H574l7.59,42H565.92Zm-28.75,77.17a44,44,0,0,1-13.58-21.8H548.7Zm-15-35.2a44,44,0,0,1,28.44-39.14l-7.08,39.14Zm44,46.1a44.08,44.08,0,0,1-15.64-2.86l5.4-29.84H584l5.4,29.84A44.18,44.18,0,0,1,573.74,349.62Zm29-10.9-13.44-74.34a44,44,0,0,1,13.44,74.34Z" transform="translate(-160.4 -246.68)"/><path class="cls-6" d="M573.74,246.68a58.91,58.91,0,1,0,58.91,58.91A58.91,58.91,0,0,0,573.74,246.68Zm0,116.15A57.24,57.24,0,1,1,631,305.59,57.24,57.24,0,0,1,573.74,362.83Z" transform="translate(-160.4 -246.68)"/><path class="cls-2" d="M531.18,316.92h-.81a44.88,44.88,0,0,0,14.22,22.71l.16-.89A44.05,44.05,0,0,1,531.18,316.92Z" transform="translate(-160.4 -246.68)"/><path class="cls-2" d="M573.74,349.63a43.86,43.86,0,0,1-15.64-2.86l-.14.77a44.84,44.84,0,0,0,31.57,0l-.14-.77A43.92,43.92,0,0,1,573.74,349.63Z" transform="translate(-160.4 -246.68)"/><path class="cls-2" d="M618.56,305.59a44.85,44.85,0,0,0-29.43-42.11l.16.9a44.05,44.05,0,0,1,13.45,74.36l.16.89A44.71,44.71,0,0,0,618.56,305.59Z" transform="translate(-160.4 -246.68)"/><polygon class="cls-2" points="405.39 57.58 421.31 57.58 421.17 56.83 405.52 56.83 405.39 57.58"/><path class="cls-2" d="M558.2,264.38l.16-.9a44.85,44.85,0,0,0-29.38,40l0,.74h22l.14-.74H529.76A44,44,0,0,1,558.2,264.38Z" transform="translate(-160.4 -246.68)"/><path class="cls-7" d="M621.05,348.38h.32c.07.53.36,1,1.24,1a1,1,0,0,0,1.08-.9c0-.58-.28-.79-1.12-.92s-1.36-.44-1.36-1.1.54-1.09,1.32-1.09a1.21,1.21,0,0,1,1.35,1h-.3a.92.92,0,0,0-1.05-.78c-.64,0-1,.3-1,.8s.23.7,1.1.83,1.39.41,1.39,1.19a1.27,1.27,0,0,1-1.4,1.19A1.38,1.38,0,0,1,621.05,348.38Z" transform="translate(-160.4 -246.68)"/><path class="cls-7" d="M625,345.39h.47L627,349l1.48-3.6h.46v4.19h-.32V345.8L627,349.58h-.1l-1.58-3.78v3.78H625Z" transform="translate(-160.4 -246.68)"/></svg>